# File created by Blade
# Date/Time:  Wed Jan 21 19:19:27 2015
#---------------------------------------------------------
:version 1.10
:name HOM
:units
  mass 1.0
  length 1.000000
  angle deg
:documentation
     Acclaim Skeleton File
:root
   axis xyz
   order TX TY TZ RX RY RZ
   position 0.000000 0.000000 0.000000
   orientation 0 0 0
:bonedata
   begin
      id 1
      name RightUpLeg_dum
      direction -1.000000 0.000000 0.000000
      length 3.693983
      axis 0.0 0.0 0.0 xyz
   end
   begin
      id 2
      name LeftUpLeg_dum
      direction 1.000000 0.000000 0.000000
      length 3.693983
      axis 0.0 0.0 0.0 xyz
   end
   begin
      id 3
      name Spine_dum
      direction 0.000000 1.000000 0.000000
      length 2.392956
      axis 0.0 0.0 0.0 xyz
   end
   begin
      id 4
      name RightUpLeg
      direction 0.000000 -1.000000 0.000000
      length 15.795667
      axis 0.0 0.0 0.0 xyz
      dof rx ry rz
   end
   begin
      id 5
      name RightLeg
      direction 0.000000 -1.000000 0.000000
      length 14.766989
      axis 0.0 0.0 0.0 xyz
      dof rx ry rz
   end
   begin
      id 6
      name RightFoot
      direction 0.000000 -0.258819 0.965926
      length 4.962790
      axis 15.0 0.0 0.0 xyz
      dof rx ry rz
   end
   begin
      id 7
      name RightToeBase
      direction 0.000000 0.000000 1.000000
      length 2.952750
      axis 0.0 0.0 0.0 xyz
      dof rx ry rz
   end
   begin
      id 8
      name LeftUpLeg
      direction 0.000000 -1.000000 0.000000
      length 15.795667
      axis 0.0 0.0 0.0 xyz
      dof rx ry rz
   end
   begin
      id 9
      name LeftLeg
      direction 0.000000 -1.000000 0.000000
      length 14.766989
      axis 0.0 0.0 0.0 xyz
      dof rx ry rz
   end
   begin
      id 10
      name LeftFoot
      direction 0.000000 -0.258819 0.965926
      length 4.962790
      axis 15.0 0.0 0.0 xyz
      dof rx ry rz
   end
   begin
      id 11
      name LeftToeBase
      direction 0.000000 0.000000 1.000000
      length 2.952750
      axis 0.0 0.0 0.0 xyz
      dof rx ry rz
   end
   begin
      id 12
      name Spine
      direction 0.000000 1.000000 0.000000
      length 0.000000
      axis 0.0 0.0 0.0 xyz
      dof rx ry rz
   end
   begin
      id 13
      name Spine_dum1
      direction 0.000000 1.000000 0.000000
      length 13.207411
      axis 0.0 0.0 0.0 xyz
   end
   begin
      id 14
      name Spine_dum2
      direction 0.000000 1.000000 0.000000
      length 13.207411
      axis 0.0 0.0 0.0 xyz
   end
   begin
      id 15
      name Spine_dum3
      direction 0.000000 1.000000 0.000000
      length 19.250100
      axis 0.0 0.0 0.0 xyz
   end
   begin
      id 16
      name RightShoulder
      direction -1.000000 0.000000 0.000000
      length 8.140465
      axis 0.0 0.0 90.0 xyz
      dof rx ry rz
   end
   begin
      id 17
      name RightArm
      direction -1.000000 0.000000 0.000000
      length 10.649840
      axis 0.0 0.0 90.0 xyz
      dof rx ry rz
   end
   begin
      id 18
      name RightForeArm
      direction -1.000000 0.000000 0.000000
      length 8.304624
      axis 0.0 0.0 90.0 xyz
      dof ry rz rx
   end
   begin
      id 19
      name RightHand
      direction -1.000000 0.000000 0.000000
      length 0.000000
      axis 0.0 0.0 90.0 xyz
      dof rx ry rz
   end
   begin
      id 20
      name RightHand_dum1
      direction -1.000000 0.000000 0.000000
      length 3.937000
      axis 0.0 0.0 90.0 xyz
   end
   begin
      id 21
      name RightHand_dum2
      direction 0.000000 0.000000 0.000000
      length 0.000000
      axis 0.0 0.0 90.0 xyz
   end
   begin
      id 22
      name RightHandThumb1
      direction 0.000000 0.000000 1.000000
      length 3.937000
      axis 0.0 0.0 90.0 xyz
      dof rx rz ry
   end
   begin
      id 23
      name LeftShoulder
      direction 1.000000 0.000000 0.000000
      length 8.140465
      axis 0.0 0.0 -90.0 xyz
      dof rx ry rz
   end
   begin
      id 24
      name LeftArm
      direction 1.000000 0.000000 0.000000
      length 10.649840
      axis 0.0 0.0 -90.0 xyz
      dof rx ry rz
   end
   begin
      id 25
      name LeftForeArm
      direction 1.000000 0.000000 0.000000
      length 8.304624
      axis 0.0 0.0 -90.0 xyz
      dof ry rz rx
   end
   begin
      id 26
      name LeftHand
      direction 1.000000 0.000000 0.000000
      length 0.000000
      axis 0.0 0.0 -90.0 xyz
      dof rx ry rz
   end
   begin
      id 27
      name LeftHand_dum1
      direction 1.000000 0.000000 0.000000
      length 3.937000
      axis 0.0 0.0 -90.0 xyz
   end
   begin
      id 28
      name LeftHand_dum2
      direction 0.000000 0.000000 0.000000
      length 0.000000
      axis 0.0 0.0 -90.0 xyz
   end
   begin
      id 29
      name LeftHandThumb1
      direction 0.000000 0.000000 1.000000
      length 3.937000
      axis 0.0 0.0 -90.0 xyz
      dof rx rz ry
   end
   begin
      id 30
      name Head
      direction 0.000000 1.000000 0.000000
      length 4.527550
      axis 0.0 0.0 0.0 xyz
      dof rx ry rz
   end
:hierarchy
   begin
      root RightUpLeg_dum LeftUpLeg_dum Spine_dum
      RightUpLeg_dum RightUpLeg
      LeftUpLeg_dum LeftUpLeg
      Spine_dum Spine
      RightUpLeg RightLeg
      RightLeg RightFoot
      RightFoot RightToeBase
      LeftUpLeg LeftLeg
      LeftLeg LeftFoot
      LeftFoot LeftToeBase
      Spine Spine_dum1 Spine_dum2 Spine_dum3
      Spine_dum1 RightShoulder
      Spine_dum2 LeftShoulder
      Spine_dum3 Head
      RightShoulder RightArm
      RightArm RightForeArm
      RightForeArm RightHand
      RightHand RightHand_dum1 RightHand_dum2
      RightHand_dum2 RightHandThumb1
      LeftShoulder LeftArm
      LeftArm LeftForeArm
      LeftForeArm LeftHand
      LeftHand LeftHand_dum1 LeftHand_dum2
      LeftHand_dum2 LeftHandThumb1
   end

# File created by Blade
# Date/Time:  Wed Jan 21 19:19:18 2015
# Frame Rate: 120.000 fps
#------------------------------------------------------
:FULLY-SPECIFIED
:DEGREES
489
root -1.683122 14.249888 -1.779914 43.953245 -16.861651 21.848671
RightUpLeg -169.101675 -62.841382 30.141981
RightLeg 109.086022 -0.000000 -0.000000
RightFoot -15.318252 22.406570 20.896210
RightToeBase 21.593535 -0.000000 -0.000000
LeftUpLeg -27.839989 29.578922 26.615584
LeftLeg 12.605785 -0.000000 -0.000000
LeftFoot -26.023061 1.874072 -18.873445
LeftToeBase 5.614024 -0.000000 -0.000000
Spine -37.112592 16.024118 29.928487
RightShoulder -18.504054 17.798845 -17.164635
RightArm -16.012788 -5.000475 50.584515
RightForeArm -23.861161 -0.000000 47.159650
RightHand 37.821468 -0.000000 -57.322707
RightHandThumb1 -24.326973 -0.000000 -32.862282
LeftShoulder -22.455218 -24.639479 72.315883
LeftArm 69.670469 -45.008356 -12.695350
LeftForeArm 7.948212 -0.000000 8.903643
LeftHand -17.811861 0.000000 12.371887
LeftHandThumb1 -26.253704 0.000000 33.147579
Head -55.954517 8.753541 46.921718
490
root -1.685390 14.247515 -1.776162 43.801463 -16.648383 21.891395
RightUpLeg -168.590404 -63.197053 29.693929
RightLeg 109.139444 -0.000000 -0.000000
RightFoot -15.554967 22.255748 20.850567
RightToeBase 21.704012 -0.000000 -0.000000
LeftUpLeg -27.852459 29.244922 26.813108
LeftLeg 12.759141 -0.000000 -0.000000
LeftFoot -26.068318 1.935342 -18.915910
LeftToeBase 5.588506 -0.000000 -0.000000
Spine -37.190068 15.851868 30.138931
RightShoulder -18.536489 17.848421 -17.242228
RightArm -16.048983 -4.913063 50.593969
RightForeArm -24.138340 0.000000 47.327907
RightHand 37.786664 -0.000000 -57.378228
RightHandThumb1 -24.326973 -0.000000 -32.862282
LeftShoulder -22.377011 -24.731177 72.345305
LeftArm 69.886732 -44.769839 -12.793565
LeftForeArm 8.021352 -0.000000 8.953610
LeftHand -17.757083 -0.000000 12.367155
LeftHandThumb1 -26.253704 0.000000 33.147579
Head -55.968760 8.635632 46.972399
491
root -1.688187 14.245854 -1.776628 43.672566 -16.496105 21.932762
RightUpLeg -167.992083 -63.504138 29.106367
RightLeg 109.186375 -0.000000 -0.000000
RightFoot -15.703955 22.172619 21.025069
RightToeBase 21.872091 -0.000000 -0.000000
LeftUpLeg -27.869894 29.049667 26.930115
LeftLeg 12.870558 -0.000000 -0.000000
LeftFoot -26.055332 1.906288 -18.956364
LeftToeBase 5.520266 -0.000000 -0.000000
Spine -37.241722 15.704580 30.320969
RightShoulder -18.563602 17.867808 -17.320652
RightArm -16.040399 -4.736901 50.633168
RightForeArm -24.230899 -0.000000 47.483114
RightHand 38.093655 0.000000 -56.984311
RightHandThumb1 -24.326973 -0.000000 -32.862282
LeftShoulder -22.275483 -24.666044 72.293962
LeftArm 69.983126 -44.658688 -12.681827
LeftForeArm 8.046821 -0.000000 9.010165
LeftHand -17.822516 -0.000000 12.428549
LeftHandThumb1 -26.253704 0.000000 33.147579
Head -55.912761 8.640471 46.947743
492
root -1.689729 14.244487 -1.772060 43.526232 -16.365239 21.986255
RightUpLeg -167.406259 -63.805800 28.525797
RightLeg 109.225932 -0.000000 -0.000000
RightFoot -15.866061 22.062464 21.087131
RightToeBase 21.896620 -0.000000 -0.000000
LeftUpLeg -27.857722 28.975501 26.969365
LeftLeg 12.910972 -0.000000 -0.000000
LeftFoot -26.002815 1.797272 -18.937928
LeftToeBase 5.508607 -0.000000 -0.000000
Spine -37.285146 15.528609 30.511141
RightShoulder -18.642504 17.809583 -17.458057
RightArm -15.756605 -4.598265 50.760866
RightForeArm -24.487279 0.000000 47.280496
RightHand 38.515527 -0.000000 -57.373845
RightHandThumb1 -24.326973 -0.000000 -32.862282
LeftShoulder -22.210662 -24.672766 72.282207
LeftArm 70.246780 -44.487236 -12.824579
LeftForeArm 8.242122 -0.000000 9.064596
LeftHand -17.879873 0.000000 12.421458
LeftHandThumb1 -26.253704 0.000000 33.147579
Head -55.800583 8.621077 46.939239
493
root -1.690176 14.244576 -1.769654 43.384159 -16.234261 22.046532
RightUpLeg -166.863800 -64.082774 27.984644
RightLeg 109.265233 -0.000000 -0.000000
RightFoot -16.054392 21.927955 21.027691
RightToeBase 21.873867 -0.000000 -0.000000
LeftUpLeg -27.856903 28.874567 27.004253
LeftLeg 12.960022 -0.000000 -0.000000
LeftFoot -25.958382 1.700896 -18.955609
LeftToeBase 5.464357 -0.000000 -0.000000
Spine -37.331479 15.370152 30.661202
RightShoulder -18.731858 17.729526 -17.545826
RightArm -15.542764 -4.602108 50.832055
RightForeArm -24.600316 -0.000000 47.268420
RightHand 38.668620 -0.000000 -57.333161
RightHandThumb1 -24.326973 -0.000000 -32.862282
LeftShoulder -22.069272 -24.547689 72.194900
LeftArm 70.502254 -44.545521 -12.976991
LeftForeArm 8.483425 -0.000000 9.139065
LeftHand -17.855371 -0.000000 12.431060
LeftHandThumb1 -26.253704 0.000000 33.147579
Head -55.743052 8.550718 47.000513
494
root -1.690765 14.244887 -1.767737 43.255971 -16.128644 22.087147
RightUpLeg -166.356677 -64.313457 27.480933
RightLeg 109.290469 -0.000000 -0.000000
RightFoot -16.199933 21.822329 21.032165
RightToeBase 22.073777 -0.000000 -0.000000
LeftUpLeg -27.843245 28.849193 27.019093
LeftLeg 12.979852 -0.000000 -0.000000
LeftFoot -25.904457 1.592327 -18.946926
LeftToeBase 5.458118 -0.000000 -0.000000
Spine -37.376627 15.213623 30.818318
RightShoulder -18.677951 17.642856 -17.583262
RightArm -15.439009 -4.617421 50.881906
RightForeArm -24.606321 -0.000000 47.310571
RightHand 38.753209 -0.000000 -57.274935
RightHandThumb1 -24.326973 -0.000000 -32.862282
LeftShoulder -21.963713 -24.436473 72.184884
LeftArm 70.740755 -44.522402 -13.177495
LeftForeArm 8.625864 -0.000000 9.238548
LeftHand -18.055757 -0.000000 12.469479
LeftHandThumb1 -26.253704 0.000000 33.147579
Head -55.648388 8.510972 47.039405
495
root -1.688439 14.246276 -1.765899 43.122382 -16.018735 22.168501
RightUpLeg -165.911867 -64.568795 27.011595
RightLeg 109.297054 -0.000000 -0.000000
RightFoot -16.314101 21.677166 20.958117
RightToeBase 22.023427 -0.000000 -0.000000
LeftUpLeg -27.846371 28.767226 27.004669
LeftLeg 12.998185 -0.000000 -0.000000
LeftFoot -25.843500 1.494062 -18.939858
LeftToeBase 5.399978 -0.000000 -0.000000
Spine -37.427368 15.045173 30.934336
RightShoulder -18.600718 17.639173 -17.601246
RightArm -15.567271 -4.933843 50.885852
RightForeArm -24.474765 -0.000000 47.677945
RightHand 38.087428 -0.000000 -56.873454
RightHandThumb1 -24.326973 -0.000000 -32.862282
LeftShoulder -21.937754 -24.437249 72.255698
LeftArm 70.976767 -44.380554 -13.442101
LeftForeArm 8.707212 -0.000000 9.374493
LeftHand -18.151078 -0.000000 12.473745
LeftHandThumb1 -26.253704 0.000000 33.147579
Head -55.569798 8.452096 47.076690
496
root -1.685706 14.248869 -1.762147 42.979498 -15.910674 22.250485
RightUpLeg -165.456802 -64.824373 26.547618
RightLeg 109.302667 -0.000000 -0.000000
RightFoot -16.395416 21.563215 21.024009
RightToeBase 22.092302 -0.000000 -0.000000
LeftUpLeg -27.838351 28.693261 26.987898
LeftLeg 13.009304 -0.000000 -0.000000
LeftFoot -25.806110 1.386162 -18.932928
LeftToeBase 5.454973 -0.000000 -0.000000
Spine -37.458073 14.877512 31.064243
RightShoulder -18.582003 17.607040 -17.695588
RightArm -15.524958 -5.092624 50.963845
RightForeArm -24.471524 -0.000000 47.758983
RightHand 37.869008 -0.000000 -56.836568
RightHandThumb1 -24.326973 -0.000000 -32.862282
LeftShoulder -21.875278 -24.463870 72.282517
LeftArm 71.088287 -44.269088 -13.564517
LeftForeArm 8.704950 0.000000 9.503029
LeftHand -18.022193 -0.000000 12.471868
LeftHandThumb1 -26.253704 0.000000 33.147579
Head -55.530099 8.347833 47.094556
497
root -1.682626 14.253084 -1.757021 42.841833 -15.795326 22.322854
RightUpLeg -165.072761 -65.067295 26.188578
RightLeg 109.298392 -0.000000 -0.000000
RightFoot -16.462558 21.495026 21.030886
RightToeBase 22.066334 -0.000000 -0.000000
LeftUpLeg -27.821121 28.587278 26.993239
LeftLeg 13.017065 -0.000000 -0.000000
LeftFoot -25.769153 1.303616 -18.932329
LeftToeBase 5.430030 -0.000000 -0.000000
Spine -37.492139 14.713622 31.212537
RightShoulder -18.582674 17.506769 -17.800758
RightArm -15.351192 -5.143651 51.060456
RightForeArm -24.559861 -0.000000 47.705916
RightHand 37.873559 0.000000 -56.895425
RightHandThumb1 -24.326973 -0.000000 -32.862282
LeftShoulder -21.852354 -24.503767 72.317334
LeftArm 71.244239 -44.114242 -13.751561
LeftForeArm 8.660875 -0.000000 9.667841
LeftHand -17.877173 -0.000000 12.466186
LeftHandThumb1 -26.253704 0.000000 33.147579
Head -55.501256 8.257333 47.070346
498
root -1.677918 14.258361 -1.756834 42.740986 -15.707588 22.383428
RightUpLeg -164.709772 -65.263863 25.835181
RightLeg 109.282861 -0.000000 -0.000000
RightFoot -16.499720 21.475158 21.212633
RightToeBase 22.306311 -0.000000 -0.000000
LeftUpLeg -27.846243 28.492870 26.995267
LeftLeg 13.076569 -0.000000 -0.000000
LeftFoot -25.746300 1.239875 -18.924555
LeftToeBase 5.388275 -0.000000 -0.000000
Spine -37.525487 14.573731 31.349232
RightShoulder -18.539031 17.420969 -17.885745
RightArm -15.210688 -5.110373 51.134294
RightForeArm -24.492368 -0.000000 47.693651
RightHand 38.206845 -0.000000 -56.687206
RightHandThumb1 -24.326973 -0.000000 -32.862282
LeftShoulder -21.773822 -24.402483 72.247890
LeftArm 71.374723 -44.156072 -13.797280
LeftForeArm 8.732482 -0.000000 9.766311
LeftHand -17.869263 -0.000000 12.281005
LeftHandThumb1 -26.253704 0.000000 33.147579
Head -55.459435 8.164598 47.073404
499
root -1.672331 14.266561 -1.759546 42.647511 -15.626010 22.430789
RightUpLeg -164.361344 -65.419715 25.506564
RightLeg 109.248433 -0.000000 -0.000000
RightFoot -16.535821 21.329830 21.131242
RightToeBase 22.175294 -0.000000 -0.000000
LeftUpLeg -27.878240 28.377086 27.014077
LeftLeg 13.156532 -0.000000 -0.000000
LeftFoot -25.757673 1.176902 -18.978217
LeftToeBase 5.457803 -0.000000 -0.000000
Spine -37.533092 14.449978 31.483985
RightShoulder -18.543271 17.326964 -17.996721
RightArm -14.896467 -5.004550 51.233643
RightForeArm -24.643161 -0.000000 47.350118
RightHand 38.792182 -0.000000 -57.116970
RightHandThumb1 -24.326973 -0.000000 -32.862282
LeftShoulder -21.707510 -24.295075 72.168077
LeftArm 71.424413 -44.184377 -13.689534
LeftForeArm 8.538291 -0.000000 9.823375
LeftHand -17.916452 -0.000000 12.488084
LeftHandThumb1 -26.253704 0.000000 33.147579
Head -55.459501 8.091715 47.083590
500
root -1.665645 14.276328 -1.763766 42.572629 -15.572158 22.453341
RightUpLeg -164.028117 -65.518594 25.205388
RightLeg 109.203932 -0.000000 -0.000000
RightFoot -16.591146 21.235276 21.101008
RightToeBase 22.183274 -0.000000 -0.000000
LeftUpLeg -27.903298 28.256793 27.056216
LeftLeg 13.259272 -0.000000 -0.000000
LeftFoot -25.773279 1.146191 -19.030104
LeftToeBase 5.423702 -0.000000 -0.000000
Spine -37.523597 14.349573 31.627589
RightShoulder -18.530906 17.246799 -18.075110
RightArm -14.633763 -5.019840 51.319755
RightForeArm -24.729285 -0.000000 47.155716
RightHand 38.902060 -0.000000 -57.421551
RightHandThumb1 -24.326973 -0.000000 -32.862282
LeftShoulder -21.631253 -24.287166 72.076280
LeftArm 71.558384 -44.221224 -13.698988
LeftForeArm 8.681586 -0.000000 9.894751
LeftHand -17.885790 -0.000000 12.412787
LeftHandThumb1 -26.253704 0.000000 33.147579
Head -55.441404 8.051380 47.076991
